<?xml version="1.0" standalone="no"?>
<!DOCTYPE svg PUBLIC "-//W3C//DTD SVG 20010904//EN"
 "http://www.w3.org/TR/2001/REC-SVG-20010904/DTD/svg10.dtd">
<svg version="1.0" xmlns="http://www.w3.org/2000/svg"
 width="700.000000pt" height="700.000000pt" viewBox="0 0 700.000000 700.000000"
 preserveAspectRatio="xMidYMid meet">
<metadata>
Created by potrace 1.14, written by Peter Selinger 2001-2017
</metadata>
<g transform="translate(0.000000,700.000000) scale(0.100000,-0.100000)"
fill="#000000" stroke="none">
<path d="M3500 5454 c-25 -8 -54 -19 -65 -24 -19 -9 -71 -28 -590 -215 -132
-48 -314 -114 -405 -147 -91 -33 -219 -80 -285 -103 -127 -45 -755 -273 -840
-304 -27 -11 -97 -36 -153 -57 -57 -20 -118 -47 -135 -58 -41 -28 -54 -69 -33
-101 25 -37 53 -53 203 -107 280 -101 438 -159 441 -163 2 -1 -21 -33 -50 -69
-147 -185 -199 -367 -207 -728 -1 -27 -6 -38 -21 -43 -31 -10 -92 -77 -116
-128 -22 -49 -31 -169 -14 -192 4 -5 10 -22 14 -37 3 -16 31 -52 61 -82 57
-58 56 -53 38 -146 -3 -19 -7 -37 -8 -40 -1 -3 -5 -25 -9 -50 -18 -99 -102
-330 -167 -457 -66 -131 -157 -276 -237 -383 -23 -30 -42 -58 -42 -62 0 -3 39
-36 88 -72 92 -70 240 -148 278 -148 59 0 199 116 262 215 21 34 50 91 64 127
23 57 32 93 53 200 23 117 23 564 -1 747 -3 28 2 42 32 78 96 118 91 280 -13
387 l-36 36 7 89 c3 48 8 102 11 118 3 17 8 46 11 65 17 111 65 231 131 332
68 103 121 145 264 205 137 58 589 252 659 284 25 12 54 24 65 29 11 4 36 15
55 23 46 20 171 74 295 127 55 23 120 52 145 63 162 72 275 117 296 117 67 0
125 -71 116 -143 -8 -73 -25 -82 -497 -282 -242 -103 -458 -195 -480 -205 -22
-9 -129 -55 -237 -101 -109 -46 -198 -86 -198 -89 0 -3 229 -87 508 -188 279
-101 567 -206 639 -233 176 -65 193 -67 273 -34 36 14 85 33 110 42 40 13 315
114 445 163 28 10 145 53 260 95 116 43 282 104 370 137 88 33 167 61 175 63
8 2 62 22 120 44 58 22 150 56 205 76 55 20 136 50 180 67 44 17 85 31 90 33
11 2 28 8 85 30 19 7 80 30 135 50 215 78 249 96 273 140 15 30 -10 77 -56
103 -20 11 -172 70 -337 130 -364 134 -563 207 -630 232 -56 21 -432 159 -750
275 -115 42 -228 83 -250 92 -188 72 -505 186 -525 189 -14 2 -45 -4 -70 -12z"/>
<path d="M5070 3695 c-137 -52 -218 -82 -931 -344 -301 -111 -553 -201 -562
-201 -13 0 -309 105 -507 179 -41 16 -172 63 -290 105 -118 42 -231 83 -250
91 -19 7 -66 25 -105 38 -79 28 -267 97 -365 133 -36 13 -68 24 -72 24 -4 0
-7 -88 -6 -196 l0 -197 37 -48 c52 -68 76 -146 76 -244 0 -44 -3 -96 -6 -115
-8 -44 -44 -128 -66 -152 -14 -15 -14 -24 -4 -58 22 -74 95 -125 341 -238 146
-67 424 -157 550 -177 19 -3 51 -10 70 -15 19 -4 60 -12 90 -15 30 -4 63 -9
72 -10 132 -25 623 -25 755 -1 10 2 43 7 73 11 63 8 69 9 170 30 107 22 106
22 205 49 227 63 377 121 614 239 116 58 186 117 223 187 l23 45 3 463 c2 370
0 462 -10 461 -7 0 -65 -20 -128 -44z"/>
</g>
</svg>
